<?xml version="1.0" encoding="UTF-8" standalone="no"?>
<svg
   width="65pt"
   height="64pt"
   viewBox="0 0 86.666667 85.333333"
   version="1.1"
   id="svg3"
   sodipodi:docname="GB-EAW.svg"
   inkscape:version="1.3.2 (091e20ef0f, 2023-11-25)"
   xmlns:inkscape="http://www.inkscape.org/namespaces/inkscape"
   xmlns:sodipodi="http://sodipodi.sourceforge.net/DTD/sodipodi-0.dtd"
   xmlns="http://www.w3.org/2000/svg"
   xmlns:svg="http://www.w3.org/2000/svg">
  <defs
     id="defs3" />
  <sodipodi:namedview
     id="namedview3"
     pagecolor="#ffffff"
     bordercolor="#000000"
     borderopacity="0.25"
     inkscape:showpageshadow="2"
     inkscape:pageopacity="0.0"
     inkscape:pagecheckerboard="0"
     inkscape:deskcolor="#d1d1d1"
     showguides="false"
     inkscape:document-units="pt"
     inkscape:zoom="6.25"
     inkscape:cx="46.48"
     inkscape:cy="18.72"
     inkscape:window-width="1920"
     inkscape:window-height="1012"
     inkscape:window-x="0"
     inkscape:window-y="0"
     inkscape:window-maximized="1"
     inkscape:current-layer="svg3" />
  <mask
     id="a">
    <circle
       cx="256"
       cy="256"
       r="256"
       fill="#ffffff"
       id="circle1" />
  </mask>
  <circle
     style="fill:#f2f2f2;fill-opacity:1;stroke-width:1.62362"
     id="path4-6-7-5-5"
     cx="43.333332"
     cy="42.666668"
     r="40" />
  <path
     id="rect15"
     style="fill:#6da544;fill-opacity:1"
     d="m 3.3528125,42.195781 c -4.698e-4,10.611711 3.7992027,20.817007 11.3041345,28.3193 l 29.080787,-28.3193 z"
     sodipodi:nodetypes="cccc" />
  <path
     id="path10"
     style="fill:#d70026;fill-opacity:1;fill-rule:nonzero;stroke:none;stroke-width:1.33333"
     d="m 33.998594,51.796223 v 29.756511 c 3.069703,0.743159 6.216622,1.120133 9.375,1.123047 3.1618,-0.03104 6.308768,-0.436865 9.375,-1.208984 V 52.050781 h 29.417969 c 0.771461,-3.066311 1.176633,-6.213278 1.207031,-9.375 -0.0304,-3.161722 -0.43557,-6.308689 -1.207031,-9.375 H 52.748594 Z"
     sodipodi:nodetypes="cccccccccc" />
  <path
     id="path8"
     d="m 62.694694,23.453629 h -16.10196 c -2.79951,0 -5.22576,2.239615 -5.22576,5.039129 v 3.17279 a 2.05298,2.05298 0 0 1 -4.10596,0 v -5.785672 c 2.23961,-0.746537 3.91932,-2.612883 3.91932,-5.039129 h -7.65201 -5.22576 c -2.23961,0 -3.91932,1.679712 -3.91932,3.919323 h -2.61288 c -3.54606,0 -6.53221,2.79952 -6.53221,6.345568 h 4.66586 c 0.5599,1.49308 1.86635,2.61288 3.17279,2.61288 h 1.30644 v 8.95846 l 0.37327,2.61288 -2.98615,0.93317 c -0.18664,-2.79951 -2.42625,-4.85249 -5.03913,-4.85249 -0.74654,0 -1.49308,0.5599 -1.49308,1.1198 v 10.45153 c 0,0.74654 0.74654,1.30644 1.49308,1.30644 l 2.23961,-0.5599 10.45153,-2.79952 c 1.1198,0.5599 2.61288,0.93317 4.10595,0.93317 h 0.71665 z"
     style="fill:#d70026;fill-opacity:1;stroke-width:0.186634" />
  <path
     style="fill:none;fill-opacity:1;stroke:#000000;stroke-opacity:1"
     d="M 14.713625,70.556311 71.211204,14.058733"
     id="path15"
     sodipodi:nodetypes="cc" />
</svg>
