<?xml version="1.0" encoding="UTF-8"?>
<!-- Created by grConvert v0.1-0 -->
<svg xmlns="http://www.w3.org/2000/svg" xmlns:xlink="http://www.w3.org/1999/xlink" width="80pt" height="80pt" viewBox="0 0 80 80" version="1.1">
<g id="surface805">
<path style=" stroke:none;fill-rule:nonzero;fill:rgb(94.901961%,94.901961%,94.901961%);fill-opacity:1;" d="M 46.230469 3.03125 L 40 7.1875 L 33.816406 3.066406 C 18.0625 5.71875 5.71875 18.0625 3.066406 33.816406 L 7.1875 40 L 3.066406 46.179688 C 5.71875 61.9375 18.0625 74.28125 33.816406 76.933594 L 40 72.8125 L 46.183594 76.933594 C 61.9375 74.28125 74.28125 61.9375 76.933594 46.183594 L 72.8125 40 L 76.96875 33.765625 C 74.308594 18.023438 61.972656 5.6875 46.230469 3.03125 Z M 46.230469 3.03125 "/>
<path style=" stroke:none;fill-rule:nonzero;fill:rgb(84.705883%,0%,15.294118%);fill-opacity:1;" d="M 40 2.5 C 37.636719 2.527344 35.28125 2.777344 32.96875 3.25 L 32.96875 32.96875 L 3.25 32.96875 C 2.777344 35.28125 2.527344 37.636719 2.5 40 C 2.527344 42.363281 2.777344 44.714844 3.25 47.03125 L 32.96875 47.03125 L 32.96875 76.75 C 35.28125 77.222656 37.636719 77.472656 40 77.5 C 42.363281 77.472656 44.714844 77.222656 47.03125 76.75 L 47.03125 47.03125 L 76.75 47.03125 C 77.222656 44.714844 77.472656 42.363281 77.5 40 C 77.496094 37.640625 77.273438 35.285156 76.828125 32.96875 L 47.03125 32.96875 L 47.03125 3.171875 C 44.714844 2.726562 42.359375 2.5 40 2.5 Z M 40 2.5 "/>
</g>
</svg>
