<?xml version="1.0" encoding="UTF-8" standalone="no"?>
<!-- Created by grConvert v0.1-0 -->

<svg
   width="80pt"
   height="80pt"
   viewBox="0 0 80 80"
   version="1.1"
   id="svg2"
   sodipodi:docname="GB-ENG.svg"
   inkscape:version="1.3.2 (091e20ef0f, 2023-11-25)"
   xmlns:inkscape="http://www.inkscape.org/namespaces/inkscape"
   xmlns:sodipodi="http://sodipodi.sourceforge.net/DTD/sodipodi-0.dtd"
   xmlns="http://www.w3.org/2000/svg"
   xmlns:svg="http://www.w3.org/2000/svg">
  <defs
     id="defs2" />
  <sodipodi:namedview
     id="namedview2"
     pagecolor="#ffffff"
     bordercolor="#000000"
     borderopacity="0.25"
     inkscape:showpageshadow="2"
     inkscape:pageopacity="0.0"
     inkscape:pagecheckerboard="0"
     inkscape:deskcolor="#d1d1d1"
     inkscape:document-units="pt"
     inkscape:zoom="1.9224466"
     inkscape:cx="53.317477"
     inkscape:cy="53.577562"
     inkscape:window-width="3440"
     inkscape:window-height="1372"
     inkscape:window-x="0"
     inkscape:window-y="0"
     inkscape:window-maximized="1"
     inkscape:current-layer="svg2" />
  <g
     id="surface805">
    <path
       style=" stroke:none;fill-rule:nonzero;fill:rgb(94.901961%,94.901961%,94.901961%);fill-opacity:1;"
       d="M 46.230469 3.03125 L 40 7.1875 L 33.816406 3.066406 C 18.0625 5.71875 5.71875 18.0625 3.066406 33.816406 L 7.1875 40 L 3.066406 46.179688 C 5.71875 61.9375 18.0625 74.28125 33.816406 76.933594 L 40 72.8125 L 46.183594 76.933594 C 61.9375 74.28125 74.28125 61.9375 76.933594 46.183594 L 72.8125 40 L 76.96875 33.765625 C 74.308594 18.023438 61.972656 5.6875 46.230469 3.03125 Z M 46.230469 3.03125 "
       id="path1" />
    <path
       style=" stroke:none;fill-rule:nonzero;fill:rgb(84.705883%,0%,15.294118%);fill-opacity:1;"
       d="M 40 2.5 C 37.636719 2.527344 35.28125 2.777344 32.96875 3.25 L 32.96875 32.96875 L 3.25 32.96875 C 2.777344 35.28125 2.527344 37.636719 2.5 40 C 2.527344 42.363281 2.777344 44.714844 3.25 47.03125 L 32.96875 47.03125 L 32.96875 76.75 C 35.28125 77.222656 37.636719 77.472656 40 77.5 C 42.363281 77.472656 44.714844 77.222656 47.03125 76.75 L 47.03125 47.03125 L 76.75 47.03125 C 77.222656 44.714844 77.472656 42.363281 77.5 40 C 77.496094 37.640625 77.273438 35.285156 76.828125 32.96875 L 47.03125 32.96875 L 47.03125 3.171875 C 44.714844 2.726562 42.359375 2.5 40 2.5 Z M 40 2.5 "
       id="path2" />
  </g>
  <g
     id="g2"
     transform="translate(-0.608762,-0.32961634)">
    <path
       fill="#acabb1"
       d="M 40.608762,17.841567 33.891205,29.44462 H 20.608762 l 6.564885,11.603054 -6.564885,11.603053 H 33.891205 L 40.608762,64.25378 47.326319,52.650727 H 60.608762 L 54.043877,41.047674 60.608762,29.44462 H 47.326319 Z"
       id="path3"
       style="stroke-width:0.152672" />
    <path
       fill="#eeeeee"
       d="m 40.608762,21.963704 -5.496183,9.465649 H 23.967541 l 5.648854,9.618321 -5.648854,9.61832 h 11.145038 l 5.496183,9.618321 5.496183,-9.618321 h 11.145038 l -5.648854,-9.61832 5.648854,-9.618321 H 46.104945 Z"
       id="path4"
       style="stroke-width:0.152672" />
    <path
       fill="#d80027"
       d="m 41.066777,31.734696 c -0.763358,0 -0.763358,0.76336 -0.763358,0.76336 v 5.954198 h -0.458016 v -5.038168 c 0,0 0,-0.91603 -0.763358,-0.91603 -0.916031,0 -0.916031,0.91603 -0.916031,0.91603 v 5.343512 l -0.458015,0.152671 v -3.816794 c 0,0 0,-0.91603 -0.763359,-0.91603 -0.916031,0 -0.916031,0.91603 -0.916031,0.91603 v 6.564886 c 0,1.526717 0.763359,3.053435 1.832062,3.969465 v 3.206107 h 5.496182 v -2.595419 c 1.374046,-0.76336 2.442749,-2.137405 2.748092,-3.816794 0,-0.916031 0.305344,-1.67939 0.610687,-2.442748 l 0.610687,-2.137405 c 0,0 0.152672,-0.763359 -0.610687,-1.068703 -0.763359,-0.305343 -1.068702,0.458016 -1.068702,0.458016 l -1.221374,2.900763 h -0.458015 v -7.175572 c 0,0 0,-0.763359 -0.763359,-0.763359 -0.916031,0 -0.916031,0.763359 -0.916031,0.763359 v 5.496183 h -0.305343 v -5.954198 c 0,0 0,-0.76336 -0.916031,-0.76336 z"
       id="path5"
       style="stroke-width:0.152672" />
    <path
       fill="#ffda44"
       d="M 38.929373,7.765231 V 9.44462 h -1.67939 v 3.358779 h 1.67939 v 3.206107 C 38.013342,15.093475 36.791968,14.63546 35.570594,14.63546 a 5.0381679,5.0381679 0 0 0 -3.51145,8.70229 v 3.053435 H 49.15838 V 23.33775 c 0.916031,-1.068702 1.526718,-2.290076 1.526718,-3.664122 a 5.0381679,5.0381679 0 0 0 -8.396947,-3.664122 v -3.206107 h 1.67939 V 9.44462 h -1.67939 V 7.765231 Z"
       id="path6"
       style="stroke-width:0.152672" />
  </g>
</svg>
