<?xml version="1.0" encoding="UTF-8" standalone="no"?>
<svg
   width="64pt"
   height="64pt"
   viewBox="0 0 85.333333 85.333333"
   version="1.1"
   id="svg2"
   sodipodi:docname="GB-ENG.svg"
   inkscape:version="1.3.2 (091e20ef0f, 2023-11-25)"
   xmlns:inkscape="http://www.inkscape.org/namespaces/inkscape"
   xmlns:sodipodi="http://sodipodi.sourceforge.net/DTD/sodipodi-0.dtd"
   xmlns="http://www.w3.org/2000/svg"
   xmlns:svg="http://www.w3.org/2000/svg">
  <defs
     id="defs2" />
  <sodipodi:namedview
     id="namedview2"
     pagecolor="#ffffff"
     bordercolor="#000000"
     borderopacity="0.25"
     inkscape:showpageshadow="2"
     inkscape:pageopacity="0.0"
     inkscape:pagecheckerboard="0"
     inkscape:deskcolor="#d1d1d1"
     inkscape:zoom="9.0625"
     inkscape:cx="50.482759"
     inkscape:cy="52.082759"
     inkscape:window-width="3440"
     inkscape:window-height="1372"
     inkscape:window-x="0"
     inkscape:window-y="0"
     inkscape:window-maximized="1"
     inkscape:current-layer="svg2"
     inkscape:document-units="pt" />
  <mask
     id="a">
    <circle
       cx="256"
       cy="256"
       r="256"
       fill="#ffffff"
       id="circle1" />
  </mask>
  <circle
     style="fill:#f2f2f2;fill-opacity:1;stroke-width:1.62362"
     id="path4"
     cx="42.666664"
     cy="42.666664"
     r="40" />
  <path
     id="path3"
     style="fill:#0052b4;stroke-width:0.500001;fill-opacity:1"
     d="M 42.666014 2.6660155 A 40 40 0 0 0 20.230468 9.6230466 L 42.666014 32.058593 L 65.13867 9.5859372 A 40 40 0 0 0 42.666014 2.6660155 z M 75.748044 20.189452 L 53.273436 42.666014 L 75.710935 65.103513 A 40 40 0 0 0 82.666013 42.666014 A 40 40 0 0 0 75.748044 20.189452 z M 9.6230466 20.230468 A 40 40 0 0 0 2.6660155 42.666014 A 40 40 0 0 0 9.6210934 65.103513 L 32.058593 42.666014 L 9.6230466 20.230468 z M 42.666014 53.273436 L 20.230468 75.708982 A 40 40 0 0 0 42.666014 82.666013 A 40 40 0 0 0 65.103513 75.710935 L 42.666014 53.273436 z " />
  <g
     id="g2"
     transform="matrix(0.15625,0,0,0.15625,2.6666667,2.6666667)" />
</svg>
